<svg version="1.1" id="Layer_1" xmlns="http://www.w3.org/2000/svg" xmlns:xlink="http://www.w3.org/1999/xlink" x="0px" y="0px"
	 width="100%" viewBox="0 0 762 688" enable-background="new 0 0 762 688" xml:space="preserve">
<path fill="#E5E5E5" opacity="1.000000" stroke="none" 
	d="
M428.000000,689.000000 
	C285.333344,689.000000 143.166672,689.000000 1.000000,689.000000 
	C1.000000,459.666656 1.000000,230.333328 1.000000,1.000000 
	C255.000000,1.000000 509.000000,1.000000 763.000000,1.000000 
	C763.000000,230.333328 763.000000,459.666656 763.000000,689.000000 
	C651.500000,689.000000 540.000000,689.000000 428.000000,689.000000 
M251.730698,560.289978 
	C251.730698,560.289978 251.730820,560.396179 251.783554,561.087708 
	C253.145187,561.992371 254.418625,563.083862 255.881271,563.774597 
	C298.175812,583.747681 340.476776,603.707336 382.846985,623.518738 
	C384.482300,624.283386 387.101776,624.199036 388.776794,623.439209 
	C430.000549,604.738159 471.132202,585.834106 512.363586,567.150024 
	C517.170959,564.971619 520.510803,561.930176 523.098022,557.358582 
	C562.029053,488.568756 601.078369,419.845856 640.086731,351.099731 
	C671.377014,295.955353 702.651917,240.802246 733.925964,185.648651 
	C736.901550,180.400940 736.796021,180.071136 731.235474,178.705734 
	C688.401917,168.187775 645.567261,157.674179 602.721191,147.206985 
	C574.100586,140.215042 545.456482,133.319717 516.830994,126.347527 
	C487.725159,119.258331 458.626251,112.140503 429.530762,105.008812 
	C419.187988,102.473671 408.810944,100.050499 398.563385,97.171104 
	C395.389343,96.279243 392.757233,95.178337 389.149689,96.062027 
	C362.467499,102.597954 335.696442,108.770744 308.957336,115.074745 
	C279.479553,122.024399 250.003052,128.979645 220.531433,135.955490 
	C188.459305,143.546860 156.397781,151.183197 124.323502,158.765457 
	C96.135056,165.429108 67.951241,172.114197 39.723289,178.606827 
	C35.543644,179.568192 34.862732,180.965561 36.999729,184.623337 
	C43.631798,195.975037 50.067932,207.441376 56.565678,218.871429 
	C89.800957,277.334808 123.041351,335.795349 156.261185,394.267548 
	C186.936111,448.260284 217.580643,502.270325 248.283295,556.247314 
	C249.135330,557.745178 250.497910,558.952637 251.730698,560.289978 
z"/>
<path fill="#565858" opacity="1.000000" stroke="none" 
	d="
M251.622437,560.295532 
	C250.497910,558.952637 249.135330,557.745178 248.283295,556.247314 
	C217.580643,502.270325 186.936111,448.260284 156.261185,394.267548 
	C123.041351,335.795349 89.800957,277.334808 56.565678,218.871429 
	C50.067932,207.441376 43.631798,195.975037 36.999729,184.623337 
	C34.862732,180.965561 35.543644,179.568192 39.723289,178.606827 
	C67.951241,172.114197 96.135056,165.429108 124.323502,158.765457 
	C156.397781,151.183197 188.459305,143.546860 220.531433,135.955490 
	C250.003052,128.979645 279.479553,122.024399 308.957336,115.074745 
	C335.696442,108.770744 362.467499,102.597954 389.149689,96.062027 
	C392.757233,95.178337 395.389343,96.279243 398.563385,97.171104 
	C408.810944,100.050499 419.187988,102.473671 429.530762,105.008812 
	C458.626251,112.140503 487.725159,119.258331 516.830994,126.347527 
	C545.456482,133.319717 574.100586,140.215042 602.721191,147.206985 
	C645.567261,157.674179 688.401917,168.187775 731.235474,178.705734 
	C736.796021,180.071136 736.901550,180.400940 733.925964,185.648651 
	C702.651917,240.802246 671.377014,295.955353 640.086731,351.099731 
	C601.078369,419.845856 562.029053,488.568756 523.098022,557.358582 
	C520.510803,561.930176 517.170959,564.971619 512.363586,567.150024 
	C471.132202,585.834106 430.000549,604.738159 388.776794,623.439209 
	C387.101776,624.199036 384.482300,624.283386 382.846985,623.518738 
	C340.476776,603.707336 298.175812,583.747681 255.881271,563.774597 
	C254.418625,563.083862 253.145187,561.992371 252.127411,560.652954 
	C296.325897,580.763367 340.180542,601.308472 384.509491,622.075867 
	C385.025940,612.960449 385.742950,604.421570 385.947388,595.870483 
	C386.424072,575.930237 386.678223,555.984558 386.978027,536.040344 
	C387.340393,511.935760 387.725311,487.831146 387.967651,463.725189 
	C388.116577,448.910126 387.919800,434.091614 388.070312,419.276581 
	C388.144440,411.983002 388.769073,404.696472 388.934265,397.401978 
	C389.089417,390.551514 388.967529,383.694794 388.967529,376.561188 
	C387.156006,377.644745 386.063080,378.298462 384.961243,378.597137 
	C391.048645,368.925323 397.140167,359.605377 403.242157,350.292328 
	C436.810211,299.059967 470.385223,247.832138 503.928192,196.583344 
	C504.859711,195.160172 505.458221,193.519028 506.724854,190.932236 
	C503.509766,190.932236 501.409363,190.947586 499.309204,190.929947 
	C463.833405,190.632111 428.357574,190.334015 392.882019,190.008377 
	C391.922363,189.999573 390.965515,189.683350 390.136230,189.118195 
	C390.837769,187.034546 391.884521,185.350891 391.912201,183.650665 
	C392.353119,156.522507 392.618347,129.391479 393.057343,102.263275 
	C393.117279,98.559914 391.642487,97.360794 388.278931,98.168709 
	C379.270691,100.332443 370.285858,102.593376 361.281586,104.773888 
	C348.415985,107.889442 335.561615,111.055191 322.665741,114.040878 
	C304.735748,118.192070 286.732971,122.034172 268.834259,126.313469 
	C253.737534,129.922821 238.779007,134.107697 223.695572,137.775711 
	C210.548370,140.972855 197.296906,143.738708 184.119644,146.815598 
	C171.505127,149.761047 158.949066,152.958023 146.326965,155.869537 
	C130.699432,159.474319 115.005798,162.793549 99.386795,166.433853 
	C86.359612,169.470062 73.400681,172.798798 60.407990,175.983551 
	C53.076843,177.780563 45.738544,179.548416 38.271030,181.361572 
	C38.548389,182.339325 38.592613,182.841537 38.818382,183.241165 
	C47.548843,198.694656 56.305099,214.133560 65.038795,229.585236 
	C82.256798,260.047333 99.398224,290.552887 116.693161,320.971222 
	C134.166962,351.704041 151.816177,382.337128 169.337036,413.043274 
	C186.178574,442.558868 202.956619,472.110748 219.757889,501.649323 
	C230.167328,519.950256 240.586212,538.245972 250.925049,556.586792 
	C251.509933,557.624329 251.405838,559.050354 251.622437,560.295532 
M632.615906,192.046936 
	C626.808655,192.343613 621.004395,192.796448 615.193542,192.909424 
	C592.389343,193.352829 569.582825,193.682175 546.777710,194.082764 
	C545.458679,194.105911 544.125122,194.613342 542.830750,194.505493 
	C536.532227,193.980637 533.535461,197.872147 530.477478,202.624039 
	C517.695557,222.486115 504.643738,242.175293 491.610748,261.874847 
	C474.547119,287.666718 457.360443,313.377197 440.316956,339.182281 
	C427.583282,358.461975 414.945709,377.805969 402.450989,397.240692 
	C401.681519,398.437531 401.921753,401.062500 402.734131,402.381134 
	C416.071106,424.029205 429.578583,445.572205 443.041992,467.142456 
	C455.718628,487.452240 468.368683,507.778717 481.103363,528.052063 
	C482.011780,529.498291 483.518433,530.568787 484.746887,531.814026 
	C485.872528,530.477173 487.202820,529.262756 488.088501,527.782349 
	C492.011261,521.225525 495.796875,514.586792 499.649384,507.987732 
	C509.369568,491.337982 519.159302,474.728516 528.809631,458.038361 
	C540.933838,437.069702 552.870117,415.992218 565.027893,395.043182 
	C579.460449,370.174530 594.109070,345.431335 608.540344,320.562012 
	C622.468201,296.560059 636.218140,272.454956 650.084900,248.417480 
	C660.304260,230.702515 670.598572,213.030823 680.807251,195.309784 
	C681.407654,194.267654 681.541626,192.956909 681.812683,192.041428 
	C665.445496,192.041428 649.517761,192.041428 632.615906,192.046936 
z"/>
<path fill="#373736" opacity="1.000000" stroke="none" 
	d="
M384.970123,378.952179 
	C386.063080,378.298462 387.156006,377.644745 388.967529,376.561188 
	C388.967529,383.694794 389.089417,390.551514 388.934265,397.401978 
	C388.769073,404.696472 388.144440,411.983002 388.070312,419.276581 
	C387.919800,434.091614 388.116577,448.910126 387.967651,463.725189 
	C387.725311,487.831146 387.340393,511.935760 386.978027,536.040344 
	C386.678223,555.984558 386.424072,575.930237 385.947388,595.870483 
	C385.742950,604.421570 385.025940,612.960449 384.509491,622.075867 
	C340.180542,601.308472 296.325897,580.763367 252.101044,560.307190 
	C251.730820,560.396179 251.730698,560.289978 251.676575,560.292725 
	C251.405838,559.050354 251.509933,557.624329 250.925049,556.586792 
	C240.586212,538.245972 230.167328,519.950256 219.757889,501.649323 
	C202.956619,472.110748 186.178574,442.558868 169.337036,413.043274 
	C151.816177,382.337128 134.166962,351.704041 116.693161,320.971222 
	C99.398224,290.552887 82.256798,260.047333 65.038795,229.585236 
	C56.305099,214.133560 47.548843,198.694656 38.818382,183.241165 
	C38.592613,182.841537 38.548389,182.339325 38.271030,181.361572 
	C45.738544,179.548416 53.076843,177.780563 60.407990,175.983551 
	C73.400681,172.798798 86.359612,169.470062 99.386795,166.433853 
	C115.005798,162.793549 130.699432,159.474319 146.326965,155.869537 
	C158.949066,152.958023 171.505127,149.761047 184.119644,146.815598 
	C197.296906,143.738708 210.548370,140.972855 223.695572,137.775711 
	C238.779007,134.107697 253.737534,129.922821 268.834259,126.313469 
	C286.732971,122.034172 304.735748,118.192070 322.665741,114.040878 
	C335.561615,111.055191 348.415985,107.889442 361.281586,104.773888 
	C370.285858,102.593376 379.270691,100.332443 388.278931,98.168709 
	C391.642487,97.360794 393.117279,98.559914 393.057343,102.263275 
	C392.618347,129.391479 392.353119,156.522507 391.912201,183.650665 
	C391.884521,185.350891 390.837769,187.034546 389.665649,189.162338 
	C381.061340,189.523514 373.056549,189.448273 364.832642,189.054016 
	C361.576782,187.966217 358.514954,187.126724 357.200684,191.537888 
	C357.154602,191.729095 356.876312,192.007141 356.546631,192.061432 
	C355.896057,192.859055 355.575104,193.602402 355.218750,194.536026 
	C355.183319,194.726318 354.912628,195.003067 354.577179,195.056610 
	C353.918915,195.863892 353.596100,196.617615 353.240875,197.557861 
	C353.208466,197.744400 352.952118,198.023071 352.609314,198.076172 
	C351.957550,198.899918 351.648621,199.670532 351.305481,200.620697 
	C351.271240,200.800217 351.006439,201.052170 350.657013,201.089478 
	C349.630524,202.532471 348.953430,203.938141 348.226379,205.542114 
	C348.176453,205.740417 347.880280,206.022430 347.549011,206.063293 
	C345.887146,208.501480 344.556549,210.898788 343.184448,213.497360 
	C343.142914,213.698624 342.870178,214.006119 342.538818,214.062164 
	C341.891754,214.868561 341.576050,215.618896 341.223633,216.553772 
	C341.186951,216.738327 340.920807,217.004364 340.580200,217.057861 
	C339.570923,218.504410 338.902313,219.897461 338.169983,221.497330 
	C338.106262,221.704147 337.787262,221.996689 337.459106,222.063660 
	C336.859253,222.906891 336.587524,223.683182 336.270447,224.630127 
	C336.225098,224.800797 335.942200,225.012283 335.606201,225.049088 
	C333.260834,228.502197 331.251495,231.918503 329.210144,235.526291 
	C329.178101,235.717773 328.923676,236.011108 328.588379,236.067017 
	C327.937347,236.875305 327.621613,237.627670 327.270294,238.570892 
	C327.234680,238.761749 326.971222,239.046997 326.625946,239.089996 
	C325.606293,240.534256 324.931915,241.935547 324.219299,243.529602 
	C324.181061,243.722366 323.903961,244.001114 323.567596,244.056030 
	C322.916016,244.872421 322.600800,245.633911 322.243408,246.579681 
	C322.201263,246.763947 321.919861,247.016434 321.580139,247.061646 
	C320.562744,248.491364 319.885071,249.875854 319.151062,251.470917 
	C319.094757,251.681503 318.791107,251.994370 318.453064,252.030945 
	C317.163055,253.835251 316.211090,255.602966 315.227478,257.555908 
	C315.195831,257.741119 314.942657,258.018829 314.601685,258.074402 
	C313.952179,258.898590 313.643616,259.667206 313.298309,260.616272 
	C313.261566,260.796722 312.994965,261.050873 312.647095,261.086395 
	C311.613159,262.519318 310.927063,263.916748 310.191406,265.513367 
	C310.141846,265.712585 309.846130,265.997314 309.517395,266.047089 
	C307.862213,268.480591 306.535736,270.864349 305.165710,273.460205 
	C305.122131,273.672363 304.849365,274.008881 304.522736,274.067444 
	C303.885498,274.867828 303.574890,275.609680 303.220917,276.545776 
	C303.177582,276.740021 302.898407,277.023712 302.563904,277.076447 
	C301.915497,277.885864 301.601562,278.642517 301.232910,279.700012 
	C300.716125,280.659393 300.254089,281.317963 299.468872,282.045380 
	C298.857361,282.869995 298.569031,283.625732 298.234619,284.567444 
	C298.188538,284.753357 297.903656,285.009460 297.568115,285.056671 
	C296.533325,286.463715 295.834015,287.823578 295.088928,289.399750 
	C295.043152,289.616089 294.777191,289.969391 294.460754,290.036682 
	C293.832336,290.829346 293.520416,291.554749 293.164246,292.484528 
	C293.119995,292.688934 292.840546,293.000183 292.518188,293.055359 
	C291.866180,293.834351 291.536560,294.558105 291.173218,295.483795 
	C291.139526,295.685699 290.883698,296.005341 290.551514,296.062866 
	C289.912079,296.871979 289.604828,297.623566 289.261108,298.564575 
	C289.224640,298.753967 288.960480,299.035126 288.622925,299.074677 
	C286.957336,301.529510 285.629303,303.944794 284.254028,306.556213 
	C284.206848,306.752380 283.913422,307.029358 283.576294,307.067749 
	C282.546234,308.464691 281.853333,309.823242 281.106934,311.406494 
	C281.053436,311.631165 280.763885,311.991058 280.448853,312.052429 
	C279.827057,312.834625 279.520355,313.555389 279.174103,314.480469 
	C279.134583,314.684723 278.857513,314.995209 278.530090,315.054993 
	C277.890991,315.859100 277.579254,316.603424 277.223694,317.542603 
	C277.179840,317.737457 276.900970,318.023499 276.562439,318.078308 
	C275.925842,318.905731 275.627747,319.678345 275.293243,320.624756 
	C275.256836,320.798584 274.991760,321.035034 274.651245,321.071716 
	C272.973816,323.533142 271.636871,325.957916 270.257507,328.572174 
	C270.215088,328.761688 269.928436,329.023773 269.592773,329.063354 
	C267.925903,331.530731 266.594727,333.958496 265.218506,336.568176 
	C265.173431,336.750092 264.897858,337.004089 264.564087,337.061523 
	C263.912872,337.872528 263.595398,338.626099 263.248901,339.562958 
	C263.219849,339.746246 262.969971,340.020752 262.626801,340.068146 
	C261.313782,341.913086 260.343903,343.710663 259.326447,345.777283 
	C259.076965,346.345428 258.875092,346.644501 258.349670,346.996155 
	C256.423004,349.809357 254.819839,352.570007 253.172363,355.519470 
	C253.128036,355.708282 252.850159,355.978943 252.523621,356.040283 
	C251.875076,356.841400 251.553040,357.581238 251.194458,358.513947 
	C251.157913,358.706848 250.891602,358.995422 250.560883,359.045654 
	C248.246811,362.512421 246.263458,365.928925 244.232193,369.542084 
	C244.184265,369.738739 243.890442,370.017212 243.552673,370.058655 
	C242.536911,371.474426 241.858948,372.848724 241.128448,374.438232 
	C241.075928,374.653442 240.781448,374.984497 240.463150,375.041931 
	C239.833237,375.822662 239.521622,376.545959 239.173050,377.474548 
	C239.136093,377.679779 238.879715,378.008789 238.548126,378.067566 
	C237.905731,378.876068 237.594940,379.625824 237.241714,380.566345 
	C237.199295,380.757141 236.922150,381.032715 236.586365,381.083130 
	C235.936752,381.887817 235.622940,382.642120 235.257843,383.697021 
	C234.765884,384.668915 234.325226,385.340210 233.549805,386.067352 
	C232.919449,386.889648 232.623856,387.656067 232.237228,388.711884 
	C231.681702,389.658691 231.217178,390.316101 230.418732,391.019836 
	C229.127777,392.811127 228.170746,394.556061 227.169754,396.499237 
	C227.125778,396.697449 226.846100,396.991821 226.521744,397.051086 
	C225.871231,397.844147 225.545074,398.577942 225.194946,399.503082 
	C225.170975,399.694458 224.936218,400.000549 224.595306,400.055298 
	C223.572495,401.495300 222.890610,402.880554 222.146393,404.472473 
	C222.084030,404.679138 221.770004,404.975403 221.450409,405.044922 
	C220.840408,405.863495 220.550003,406.612488 220.214966,407.549683 
	C220.170334,407.737823 219.890884,408.005219 219.559769,408.056946 
	C218.914841,408.852875 218.601028,409.597107 218.239288,410.539062 
	C218.191376,410.736786 217.896088,411.016785 217.566010,411.066833 
	C216.106979,414.524994 220.504562,423.591461 225.058655,427.127167 
	C225.189926,427.280090 225.256546,427.677643 225.195099,428.034851 
	C226.029190,429.593842 226.924713,430.795654 228.043716,432.211487 
	C228.596237,433.168610 228.925278,433.911652 229.197235,435.027527 
	C230.395554,437.257080 231.650970,439.113800 233.040665,441.132141 
	C233.174942,441.293762 233.246719,441.707886 233.188751,442.083984 
	C238.442490,452.161011 243.638077,461.928101 249.116013,471.534241 
	C251.761581,476.173492 254.938080,480.509979 258.094177,485.192688 
	C258.648926,486.128632 258.983643,486.855469 259.242798,487.948486 
	C260.084961,489.538574 261.002686,490.762543 262.141693,492.196930 
	C262.673859,493.147827 262.984772,493.888245 263.225067,494.991272 
	C264.075806,496.561584 264.997101,497.769287 266.138733,499.188721 
	C266.669281,500.142548 266.979431,500.884705 267.219666,501.989258 
	C268.061432,503.566040 268.973083,504.780426 270.100128,506.211029 
	C270.637177,507.164001 270.958893,507.900787 271.216003,509.018250 
	C275.079437,515.942322 279.007477,522.485657 282.967285,529.020203 
	C282.999054,529.011414 282.966827,529.068970 283.021454,529.422302 
	C287.996216,532.767761 288.118805,528.859863 288.876831,525.564819 
	C288.934692,525.346924 289.243927,525.018799 289.573608,524.984619 
	C292.506042,521.445740 295.307648,518.067932 297.650299,514.397278 
	C299.617279,511.315216 301.049286,507.891724 302.744324,504.432495 
	C302.770538,504.245575 303.016144,503.958923 303.356567,503.913879 
	C304.039948,503.121948 304.382843,502.375061 304.766174,501.441467 
	C304.806580,501.254791 305.072937,500.981018 305.411591,500.933044 
	C306.430664,499.513947 307.111084,498.142822 307.862915,496.555359 
	C307.934326,496.338989 308.256958,496.017242 308.570679,495.952911 
	C309.182831,495.161133 309.481201,494.433655 309.835938,493.503174 
	C309.892273,493.300140 310.198029,493.010101 310.515717,492.954803 
	C311.150574,492.178497 311.467773,491.457458 311.851929,490.529327 
	C311.918884,490.322205 312.239166,490.027313 312.571625,489.980682 
	C313.858002,488.189209 314.811920,486.444366 315.824799,484.496582 
	C315.883728,484.293671 316.189819,484.002258 316.513489,483.940735 
	C317.130768,483.132141 317.424408,482.385101 317.766388,481.445496 
	C317.814697,481.252930 318.109741,480.987152 318.441589,480.934540 
	C319.092957,480.128937 319.412537,479.375946 319.779236,478.438049 
	C319.826355,478.253174 320.112183,478.000366 320.447021,477.940247 
	C321.085480,477.112061 321.389130,476.343933 321.736328,475.397949 
	C321.779816,475.220062 322.061676,474.986145 322.396545,474.947418 
	C324.752991,471.518829 326.774567,468.128937 328.852966,464.530884 
	C328.909760,464.322754 329.207397,464.010315 329.544037,463.972107 
	C330.853455,462.196259 331.826263,460.458618 332.839203,458.519897 
	C332.879364,458.318787 333.146027,458.007202 333.469238,457.948975 
	C334.121460,457.165863 334.450439,456.440948 334.824219,455.513184 
	C334.868958,455.310333 335.155579,455.009521 335.497925,454.968903 
	C336.801697,453.147247 337.763062,451.366180 338.769104,449.407349 
	C338.813782,449.229553 339.088135,448.986328 339.424072,448.928467 
	C340.077209,448.108826 340.394409,447.347015 340.784149,446.279816 
	C341.583771,444.977722 342.310852,443.981018 343.381287,442.933167 
	C344.411896,441.485229 345.099152,440.088470 345.845825,438.497406 
	C345.905243,438.303101 346.211914,438.036469 346.530365,437.970093 
	C347.148285,437.168091 347.447754,436.432465 347.812408,435.491638 
	C347.877594,435.286469 348.201019,435.002289 348.521729,434.945099 
	C349.140961,434.150085 349.439453,433.412292 349.796173,432.476318 
	C349.854401,432.278137 350.160034,432.000183 350.486847,431.945679 
	C351.122101,431.146667 351.430542,430.402191 351.802948,429.461487 
	C351.866913,429.265289 352.185974,429.003448 352.509796,428.946960 
	C353.140076,428.146759 353.446533,427.403015 353.799713,426.467712 
	C353.846436,426.276215 354.131622,426.003967 354.474182,425.968475 
	C355.784485,424.176147 356.752167,422.419312 357.772095,420.461700 
	C357.824341,420.260895 358.121094,419.970856 358.455719,419.921295 
	C359.084656,419.110321 359.378998,418.348938 359.729279,417.401367 
	C359.785217,417.215179 360.085266,416.967957 360.416626,416.929932 
	C363.435272,412.514465 366.122559,408.137024 368.843842,403.552856 
	C368.877838,403.346161 369.136353,403.016388 369.461548,402.956421 
	C370.122101,402.165771 370.457489,401.435059 370.836609,400.504456 
	C370.880402,400.304535 371.143311,399.990784 371.470825,399.930603 
	C372.108368,399.125427 372.418335,398.380432 372.763428,397.446594 
	C372.798523,397.257751 373.061371,396.977600 373.396912,396.926788 
	C374.069427,396.128601 374.406372,395.381256 374.777283,394.449677 
	C374.811218,394.265472 375.063171,393.988251 375.403259,393.930237 
	C376.065277,393.104706 376.387207,392.337219 376.734039,391.400024 
	C376.758942,391.230286 377.000732,390.986877 377.343567,390.934326 
	C378.031250,390.126007 378.376068,389.370239 378.759827,388.428162 
	C378.798737,388.241852 379.066376,387.971039 379.404602,387.919189 
	C380.058228,387.106598 380.373596,386.345917 380.727844,385.401825 
	C380.766754,385.218414 381.038452,384.959961 381.380493,384.920288 
	C382.416748,383.506470 383.110992,382.132324 383.864502,380.487366 
	C384.272522,379.795135 384.621307,379.373657 384.970123,378.952179 
M251.450424,192.062042 
	C197.147324,193.660950 142.844238,195.259842 87.200836,196.898209 
	C125.738388,262.185150 163.467743,326.102905 201.907761,391.224609 
	C245.060364,323.657288 287.452087,257.281311 329.843811,190.905380 
	C329.452606,190.520950 329.061401,190.136505 328.670166,189.752075 
	C303.256836,190.514420 277.843475,191.276764 251.450424,192.062042 
z"/>
<path fill="#39C073" opacity="1.000000" stroke="none" 
	d="
M633.102905,192.044189 
	C649.517761,192.041428 665.445496,192.041428 681.812683,192.041428 
	C681.541626,192.956909 681.407654,194.267654 680.807251,195.309784 
	C670.598572,213.030823 660.304260,230.702515 650.084900,248.417480 
	C636.218140,272.454956 622.468201,296.560059 608.540344,320.562012 
	C594.109070,345.431335 579.460449,370.174530 565.027893,395.043182 
	C552.870117,415.992218 540.933838,437.069702 528.809631,458.038361 
	C519.159302,474.728516 509.369568,491.337982 499.649384,507.987732 
	C495.796875,514.586792 492.011261,521.225525 488.088501,527.782349 
	C487.202820,529.262756 485.872528,530.477173 484.746887,531.814026 
	C483.518433,530.568787 482.011780,529.498291 481.103363,528.052063 
	C468.368683,507.778717 455.718628,487.452240 443.041992,467.142456 
	C429.578583,445.572205 416.071106,424.029205 402.734131,402.381134 
	C401.921753,401.062500 401.681519,398.437531 402.450989,397.240692 
	C414.945709,377.805969 427.583282,358.461975 440.316956,339.182281 
	C457.360443,313.377197 474.547119,287.666718 491.610748,261.874847 
	C504.643738,242.175293 517.695557,222.486115 530.477478,202.624039 
	C533.535461,197.872147 536.532227,193.980637 542.830750,194.505493 
	C544.125122,194.613342 545.458679,194.105911 546.777710,194.082764 
	C569.582825,193.682175 592.389343,193.352829 615.193542,192.909424 
	C621.004395,192.796448 626.808655,192.343613 633.102905,192.044189 
z"/>
<path fill="#6DCEF5" opacity="1.000000" stroke="none" 
	d="
M321.919861,247.016434 
	C321.919861,247.016434 322.201263,246.763947 322.540009,246.464355 
	C323.220490,245.443558 323.562225,244.722336 323.903992,244.001114 
	C323.903961,244.001114 324.181061,243.722366 324.525269,243.401276 
	C325.570099,241.735794 326.270660,240.391403 326.971222,239.046997 
	C326.971222,239.046997 327.234680,238.761749 327.567261,238.462280 
	C328.241150,237.445587 328.582428,236.728348 328.923676,236.011108 
	C328.923676,236.011108 329.178101,235.717773 329.530304,235.412689 
	C331.902405,231.742493 333.922302,228.377380 335.942200,225.012268 
	C335.942200,225.012283 336.225098,224.800797 336.550049,224.487564 
	C337.179077,223.448456 337.483185,222.722565 337.787262,221.996689 
	C337.787262,221.996689 338.106262,221.704147 338.482513,221.385223 
	C339.546112,219.712311 340.233429,218.358337 340.920776,217.004364 
	C340.920807,217.004364 341.186951,216.738327 341.523163,216.448730 
	C342.196320,215.441467 342.533264,214.723801 342.870178,214.006119 
	C342.870178,214.006119 343.142914,213.698624 343.501465,213.384796 
	C345.200134,210.721451 346.540192,208.371933 347.880280,206.022430 
	C347.880280,206.022430 348.176453,205.740417 348.536072,205.420380 
	C349.599274,203.750961 350.302856,202.401566 351.006439,201.052170 
	C351.006439,201.052170 351.271240,200.800217 351.600769,200.502884 
	C352.270905,199.478058 352.611511,198.750565 352.952118,198.023071 
	C352.952118,198.023071 353.208466,197.744400 353.544373,197.456177 
	C354.224365,196.446320 354.568512,195.724686 354.912628,195.003067 
	C354.912628,195.003067 355.183319,194.726318 355.518280,194.434753 
	C356.194275,193.431183 356.535309,192.719162 356.876312,192.007141 
	C356.876312,192.007141 357.154602,191.729095 357.565430,191.448929 
	C360.334778,190.570190 362.693237,189.971619 365.051727,189.373047 
	C373.056549,189.448273 381.061340,189.523514 389.536743,189.554611 
	C390.965515,189.683350 391.922363,189.999573 392.882019,190.008377 
	C428.357574,190.334015 463.833405,190.632111 499.309204,190.929947 
	C501.409363,190.947586 503.509766,190.932236 506.724854,190.932236 
	C505.458221,193.519028 504.859711,195.160172 503.928192,196.583344 
	C470.385223,247.832138 436.810211,299.059967 403.242157,350.292328 
	C397.140167,359.605377 391.048645,368.925323 384.961182,378.597107 
	C384.621307,379.373657 384.272522,379.795135 383.546936,380.585022 
	C382.459595,382.288910 381.749023,383.624451 381.038452,384.959961 
	C381.038452,384.959961 380.766754,385.218414 380.429260,385.510864 
	C379.750000,386.525909 379.408203,387.248474 379.066376,387.971039 
	C379.066376,387.971039 378.798737,388.241852 378.451019,388.526550 
	C377.735809,389.536469 377.368286,390.261688 377.000732,390.986877 
	C377.000732,390.986877 376.758942,391.230286 376.433899,391.516144 
	C375.760284,392.530731 375.411713,393.259491 375.063171,393.988251 
	C375.063171,393.988251 374.811218,394.265472 374.470306,394.546082 
	C373.773407,395.543640 373.417389,396.260620 373.061371,396.977600 
	C373.061371,396.977600 372.798523,397.257751 372.464020,397.550751 
	C371.800781,398.559418 371.472046,399.275116 371.143311,399.990784 
	C371.143311,399.990784 370.880402,400.304535 370.524963,400.585022 
	C369.825104,401.582458 369.480713,402.299408 369.136353,403.016388 
	C369.136353,403.016388 368.877838,403.346161 368.523102,403.656281 
	C365.473999,408.300262 362.779633,412.634094 360.085266,416.967957 
	C360.085266,416.967957 359.785217,417.215179 359.441711,417.522522 
	C358.772491,418.543549 358.446808,419.257202 358.121094,419.970856 
	C358.121094,419.970856 357.824341,420.260895 357.461029,420.576416 
	C356.109009,422.595947 355.120300,424.299957 354.131622,426.003967 
	C354.131622,426.003967 353.846436,426.276215 353.508423,426.577393 
	C352.842255,427.586884 352.514130,428.295166 352.185974,429.003448 
	C352.185974,429.003448 351.866913,429.265289 351.506653,429.564880 
	C350.817596,430.576385 350.488800,431.288300 350.160034,432.000183 
	C350.160034,432.000183 349.854401,432.278137 349.501221,432.574890 
	C348.832397,433.581879 348.516724,434.292084 348.201019,435.002289 
	C348.201019,435.002289 347.877594,435.286469 347.520508,435.595398 
	C346.846252,436.615051 346.529083,437.325745 346.211914,438.036469 
	C346.211914,438.036469 345.905243,438.303101 345.531860,438.615692 
	C344.451630,440.280273 343.744751,441.632263 343.037903,442.984283 
	C342.310852,443.981018 341.583771,444.977722 340.482971,446.388916 
	C339.768890,447.531036 339.428528,448.258667 339.088135,448.986328 
	C339.088135,448.986328 338.813782,449.229553 338.453125,449.529053 
	C337.113495,451.555573 336.134552,453.282532 335.155579,455.009521 
	C335.155579,455.009521 334.868958,455.310333 334.522461,455.604614 
	C333.832672,456.601685 333.489349,457.304443 333.146027,458.007202 
	C333.146027,458.007202 332.879364,458.318787 332.519470,458.618591 
	C331.175507,460.615692 330.191467,462.312988 329.207397,464.010315 
	C329.207397,464.010315 328.909760,464.322754 328.530640,464.631104 
	C326.121582,468.288391 324.091644,471.637268 322.061707,474.986145 
	C322.061676,474.986145 321.779816,475.220062 321.446655,475.524353 
	C320.779755,476.552551 320.445984,477.276459 320.112183,478.000366 
	C320.112183,478.000366 319.826355,478.253174 319.479858,478.543579 
	C318.792145,479.551727 318.450958,480.269440 318.109741,480.987152 
	C318.109741,480.987152 317.814697,481.252930 317.475769,481.557861 
	C316.821167,482.575958 316.505493,483.289093 316.189819,484.002258 
	C316.189819,484.002258 315.883728,484.293671 315.509583,484.601929 
	C314.169983,486.615906 313.204590,488.321625 312.239197,490.027313 
	C312.239166,490.027313 311.918884,490.322205 311.554932,490.618530 
	C310.859985,491.613281 310.529022,492.311676 310.198029,493.010101 
	C310.198029,493.010101 309.892273,493.300140 309.541077,493.601898 
	C308.878906,494.608185 308.567932,495.312714 308.256958,496.017242 
	C308.256958,496.017242 307.934326,496.338989 307.546509,496.651123 
	C306.463440,498.302521 305.768188,499.641754 305.072937,500.981018 
	C305.072937,500.981018 304.806580,501.254791 304.459229,501.534180 
	C303.746643,502.528687 303.381378,503.243805 303.016113,503.958923 
	C303.016144,503.958923 302.770538,504.245575 302.424988,504.550842 
	C297.800903,511.576996 293.522400,518.297913 289.243896,525.018799 
	C289.243927,525.018799 288.934692,525.346924 288.550659,525.678223 
	C286.433380,527.029358 284.700104,528.049133 282.966827,529.068970 
	C282.966827,529.068970 282.999054,529.011414 282.980103,528.656982 
	C279.067596,521.747559 275.174072,515.192566 271.280579,508.637543 
	C270.958893,507.900787 270.637177,507.164001 270.135529,505.873413 
	C269.066895,504.088654 268.178253,502.857758 267.289612,501.626831 
	C266.979431,500.884705 266.669281,500.142548 266.168091,498.850830 
	C265.083282,497.077087 264.189453,495.852875 263.295654,494.628693 
	C262.984772,493.888245 262.673859,493.147827 262.170471,491.857666 
	C261.091431,490.066040 260.204926,488.824158 259.318390,487.582306 
	C258.983643,486.855469 258.648926,486.128632 258.119385,484.836456 
	C253.412857,476.128632 249.005447,467.925934 244.355423,459.863190 
	C240.812088,453.719391 236.960938,447.753143 233.246719,441.707886 
	C233.246719,441.707886 233.174942,441.293762 233.069885,440.784546 
	C231.727997,438.401794 230.491165,436.528229 229.254333,434.654694 
	C228.925278,433.911652 228.596237,433.168610 228.097565,431.876892 
	C227.037460,430.111420 226.147003,428.894531 225.256531,427.677643 
	C225.256546,427.677643 225.189926,427.280090 225.083588,426.770691 
	C222.616867,421.179810 220.256485,416.098297 217.896088,411.016785 
	C217.896088,411.016785 218.191376,410.736786 218.532639,410.434357 
	C219.212906,409.423035 219.551895,408.714142 219.890900,408.005219 
	C219.890884,408.005219 220.170334,407.737823 220.507843,407.437683 
	C221.153580,406.416840 221.461792,405.696106 221.770020,404.975403 
	C221.770004,404.975403 222.084030,404.679138 222.460266,404.363098 
	C223.536392,402.698212 224.236313,401.349396 224.936218,400.000549 
	C224.936218,400.000549 225.170975,399.694458 225.497253,399.406738 
	C226.164368,398.409943 226.505219,397.700867 226.846100,396.991821 
	C226.846100,396.991821 227.125778,396.697449 227.484161,396.386780 
	C228.812576,394.375214 229.782623,392.674377 230.752670,390.973511 
	C231.217178,390.316101 231.681702,389.658691 232.524200,388.587036 
	C233.229660,387.452362 233.557114,386.731934 233.884583,386.011505 
	C234.325226,385.340210 234.765884,384.668915 235.555176,383.589905 
	C236.243256,382.465668 236.582703,381.749207 236.922150,381.032715 
	C236.922150,381.032715 237.199295,380.757141 237.541183,380.461639 
	C238.215286,379.447021 238.547485,378.727905 238.879700,378.008789 
	C238.879715,378.008789 239.136093,377.679779 239.475784,377.389526 
	C240.137466,376.394379 240.459457,375.689423 240.781448,374.984497 
	C240.781448,374.984497 241.075928,374.653442 241.446930,374.342957 
	C242.508774,372.694061 243.199600,371.355652 243.890442,370.017212 
	C243.890442,370.017212 244.184265,369.738739 244.541153,369.412354 
	C246.895889,365.722473 248.893738,362.358948 250.891602,358.995422 
	C250.891602,358.995422 251.157913,358.706848 251.494949,358.414093 
	C252.171387,357.407227 252.510773,356.693085 252.850159,355.978943 
	C252.850159,355.978943 253.128036,355.708282 253.494446,355.409088 
	C255.464981,352.387787 257.069092,349.665680 258.673218,346.943573 
	C258.875092,346.644501 259.076965,346.345428 259.640747,345.649384 
	C260.991760,343.508545 261.980865,341.764648 262.969971,340.020752 
	C262.969971,340.020752 263.219849,339.746246 263.545013,339.452576 
	C264.212738,338.440643 264.555298,337.722382 264.897888,337.004089 
	C264.897858,337.004089 265.173431,336.750092 265.529419,336.433105 
	C267.233093,333.752014 268.580750,331.387878 269.928436,329.023773 
	C269.928436,329.023773 270.215088,328.761688 270.559204,328.427338 
	C272.266113,325.740326 273.628937,323.387695 274.991760,321.035034 
	C274.991760,321.035034 275.256836,320.798584 275.584259,320.499023 
	C276.241455,319.474121 276.571198,318.748810 276.900970,318.023499 
	C276.900970,318.023499 277.179840,317.737457 277.522797,317.441284 
	C278.196350,316.428467 278.526947,315.711853 278.857513,314.995209 
	C278.857513,314.995209 279.134583,314.684723 279.471497,314.387268 
	C280.126892,313.390259 280.445404,312.690643 280.763885,311.991058 
	C280.763885,311.991058 281.053436,311.631165 281.425964,311.320740 
	C282.503448,309.683350 283.208435,308.356354 283.913422,307.029358 
	C283.913422,307.029358 284.206848,306.752380 284.559937,306.423706 
	C286.262146,303.741730 287.611298,301.388428 288.960480,299.035126 
	C288.960480,299.035126 289.224640,298.753967 289.555603,298.453064 
	C290.218933,297.436523 290.551331,296.720947 290.883698,296.005341 
	C290.883698,296.005341 291.139526,295.685699 291.477844,295.398438 
	C292.157623,294.407501 292.499084,293.703857 292.840546,293.000183 
	C292.840546,293.000183 293.119995,292.688934 293.466736,292.392517 
	C294.134705,291.387207 294.455963,290.678314 294.777191,289.969391 
	C294.777191,289.969391 295.043152,289.616089 295.410767,289.314148 
	C296.486786,287.677948 297.195221,286.343689 297.903656,285.009460 
	C297.903656,285.009460 298.188538,284.753357 298.522278,284.443878 
	C299.168060,283.415131 299.480042,282.695831 299.792023,281.976532 
	C300.254089,281.317963 300.716125,280.659393 301.532074,279.592010 
	C302.223450,278.463379 302.560913,277.743530 302.898407,277.023712 
	C302.898407,277.023712 303.177582,276.740021 303.521301,276.447357 
	C304.193146,275.439423 304.521271,274.724152 304.849365,274.008881 
	C304.849365,274.008881 305.122131,273.672363 305.481812,273.351929 
	C307.176392,270.686737 308.511261,268.342041 309.846130,265.997314 
	C309.846130,265.997314 310.141846,265.712585 310.503906,265.398743 
	C311.575653,263.740234 312.285309,262.395538 312.994934,261.050873 
	C312.994965,261.050873 313.261566,260.796722 313.597229,260.503876 
	C314.269501,259.480316 314.606079,258.749573 314.942657,258.018829 
	C314.942657,258.018829 315.195831,257.741119 315.546051,257.444824 
	C316.861206,255.430466 317.826141,253.712418 318.791107,251.994370 
	C318.791107,251.994370 319.094757,251.681503 319.469482,251.374176 
	C320.536072,249.716721 321.227966,248.366577 321.919861,247.016434 
z"/>
<path fill="#FBF368" opacity="1.000000" stroke="none" 
	d="
M251.940277,192.050568 
	C277.843475,191.276764 303.256836,190.514420 328.670166,189.752075 
	C329.061401,190.136505 329.452606,190.520950 329.843811,190.905380 
	C287.452087,257.281311 245.060364,323.657288 201.907761,391.224609 
	C163.467743,326.102905 125.738388,262.185150 87.200836,196.898209 
	C142.844238,195.259842 197.147324,193.660950 251.940277,192.050568 
z"/>
<path fill="#565858" opacity="1.000000" stroke="none" 
	d="
M233.188751,442.083984 
	C236.960938,447.753143 240.812088,453.719391 244.355423,459.863190 
	C249.005447,467.925934 253.412857,476.128632 257.899414,484.627319 
	C254.938080,480.509979 251.761581,476.173492 249.116013,471.534241 
	C243.638077,461.928101 238.442490,452.161011 233.188751,442.083984 
z"/>
<path fill="#565858" opacity="1.000000" stroke="none" 
	d="
M289.573578,524.984619 
	C293.522400,518.297913 297.800903,511.576996 302.398773,504.737732 
	C301.049286,507.891724 299.617279,511.315216 297.650299,514.397278 
	C295.307648,518.067932 292.506042,521.445740 289.573578,524.984619 
z"/>
<path fill="#565858" opacity="1.000000" stroke="none" 
	d="
M271.216003,509.018250 
	C275.174072,515.192566 279.067596,521.747559 282.948303,528.665771 
	C279.007477,522.485657 275.079437,515.942322 271.216003,509.018250 
z"/>
<path fill="#565858" opacity="1.000000" stroke="none" 
	d="
M217.566010,411.066833 
	C220.256485,416.098297 222.616867,421.179810 224.952332,426.617798 
	C220.504562,423.591461 216.106979,414.524994 217.566010,411.066833 
z"/>
<path fill="#565858" opacity="1.000000" stroke="none" 
	d="
M360.416626,416.929932 
	C362.779633,412.634094 365.473999,408.300262 368.489105,403.862976 
	C366.122559,408.137024 363.435272,412.514465 360.416626,416.929932 
z"/>
<path fill="#565858" opacity="1.000000" stroke="none" 
	d="
M322.396545,474.947418 
	C324.091644,471.637268 326.121582,468.288391 328.473877,464.839264 
	C326.774567,468.128937 324.752991,471.518829 322.396545,474.947418 
z"/>
<path fill="#565858" opacity="1.000000" stroke="none" 
	d="
M250.560883,359.045654 
	C248.893738,362.358948 246.895889,365.722473 244.589081,369.215698 
	C246.263458,365.928925 248.246811,362.512421 250.560883,359.045654 
z"/>
<path fill="#565858" opacity="1.000000" stroke="none" 
	d="
M335.606201,225.049072 
	C333.922302,228.377380 331.902405,231.742493 329.562317,235.221191 
	C331.251495,231.918503 333.260834,228.502197 335.606201,225.049072 
z"/>
<path fill="#565858" opacity="1.000000" stroke="none" 
	d="
M258.349670,346.996155 
	C257.069092,349.665680 255.464981,352.387787 253.538773,355.220276 
	C254.819839,352.570007 256.423004,349.809357 258.349670,346.996155 
z"/>
<path fill="#565858" opacity="1.000000" stroke="none" 
	d="
M283.021454,529.422302 
	C284.700104,528.049133 286.433380,527.029358 288.492798,525.896118 
	C288.118805,528.859863 287.996216,532.767761 283.021454,529.422302 
z"/>
<path fill="#565858" opacity="1.000000" stroke="none" 
	d="
M269.592773,329.063354 
	C268.580750,331.387878 267.233093,333.752014 265.574463,336.251221 
	C266.594727,333.958496 267.925903,331.530731 269.592773,329.063354 
z"/>
<path fill="#565858" opacity="1.000000" stroke="none" 
	d="
M274.651245,321.071716 
	C273.628937,323.387695 272.266113,325.740326 270.601624,328.237823 
	C271.636871,325.957916 272.973816,323.533142 274.651245,321.071716 
z"/>
<path fill="#565858" opacity="1.000000" stroke="none" 
	d="
M288.622925,299.074677 
	C287.611298,301.388428 286.262146,303.741730 284.607117,306.227539 
	C285.629303,303.944794 286.957336,301.529510 288.622925,299.074677 
z"/>
<path fill="#565858" opacity="1.000000" stroke="none" 
	d="
M309.517395,266.047089 
	C308.511261,268.342041 307.176392,270.686737 305.525391,273.139771 
	C306.535736,270.864349 307.862213,268.480591 309.517395,266.047089 
z"/>
<path fill="#565858" opacity="1.000000" stroke="none" 
	d="
M364.832642,189.054016 
	C362.693237,189.971619 360.334778,190.570190 357.611542,191.257721 
	C358.514954,187.126724 361.576782,187.966217 364.832642,189.054016 
z"/>
<path fill="#565858" opacity="1.000000" stroke="none" 
	d="
M347.549011,206.063293 
	C346.540192,208.371933 345.200134,210.721451 343.542999,213.183533 
	C344.556549,210.898788 345.887146,208.501480 347.549011,206.063293 
z"/>
<path fill="#565858" opacity="1.000000" stroke="none" 
	d="
M229.197235,435.027527 
	C230.491165,436.528229 231.727997,438.401794 232.935608,440.622925 
	C231.650970,439.113800 230.395554,437.257080 229.197235,435.027527 
z"/>
<path fill="#565858" opacity="1.000000" stroke="none" 
	d="
M318.453064,252.030945 
	C317.826141,253.712418 316.861206,255.430466 315.577698,257.259583 
	C316.211090,255.602966 317.163055,253.835251 318.453064,252.030945 
z"/>
<path fill="#565858" opacity="1.000000" stroke="none" 
	d="
M262.626801,340.068146 
	C261.980865,341.764648 260.991760,343.508545 259.688354,345.380310 
	C260.343903,343.710663 261.313782,341.913086 262.626801,340.068146 
z"/>
<path fill="#565858" opacity="1.000000" stroke="none" 
	d="
M312.571655,489.980682 
	C313.204590,488.321625 314.169983,486.615906 315.450623,484.804871 
	C314.811920,486.444366 313.858002,488.189209 312.571655,489.980682 
z"/>
<path fill="#565858" opacity="1.000000" stroke="none" 
	d="
M329.544037,463.972107 
	C330.191467,462.312988 331.175507,460.615692 332.479309,458.819702 
	C331.826263,460.458618 330.853455,462.196259 329.544037,463.972107 
z"/>
<path fill="#565858" opacity="1.000000" stroke="none" 
	d="
M335.497925,454.968903 
	C336.134552,453.282532 337.113495,451.555573 338.408447,449.706848 
	C337.763062,451.366180 336.801697,453.147247 335.497925,454.968903 
z"/>
<path fill="#565858" opacity="1.000000" stroke="none" 
	d="
M230.418732,391.019836 
	C229.782623,392.674377 228.812576,394.375214 227.528137,396.188538 
	C228.170746,394.556061 229.127777,392.811127 230.418732,391.019836 
z"/>
<path fill="#565858" opacity="1.000000" stroke="none" 
	d="
M354.474182,425.968475 
	C355.120300,424.299957 356.109009,422.595947 357.408813,420.777222 
	C356.752167,422.419312 355.784485,424.176147 354.474182,425.968475 
z"/>
<path fill="#565858" opacity="1.000000" stroke="none" 
	d="
M243.552673,370.058655 
	C243.199600,371.355652 242.508774,372.694061 241.499451,374.127747 
	C241.858948,372.848724 242.536911,371.474426 243.552673,370.058655 
z"/>
<path fill="#565858" opacity="1.000000" stroke="none" 
	d="
M312.647095,261.086395 
	C312.285309,262.395538 311.575653,263.740234 310.553467,265.199554 
	C310.927063,263.916748 311.613159,262.519318 312.647095,261.086395 
z"/>
<path fill="#565858" opacity="1.000000" stroke="none" 
	d="
M340.580170,217.057861 
	C340.233429,218.358337 339.546112,219.712311 338.546234,221.178406 
	C338.902313,219.897461 339.570923,218.504410 340.580170,217.057861 
z"/>
<path fill="#565858" opacity="1.000000" stroke="none" 
	d="
M381.380493,384.920288 
	C381.749023,383.624451 382.459595,382.288910 383.487701,380.855774 
	C383.110992,382.132324 382.416748,383.506470 381.380493,384.920288 
z"/>
<path fill="#565858" opacity="1.000000" stroke="none" 
	d="
M224.595306,400.055298 
	C224.236313,401.349396 223.536392,402.698212 222.522614,404.156433 
	C222.890610,402.880554 223.572495,401.495300 224.595306,400.055298 
z"/>
<path fill="#565858" opacity="1.000000" stroke="none" 
	d="
M225.195099,428.034851 
	C226.147003,428.894531 227.037460,430.111420 227.874084,431.662872 
	C226.924713,430.795654 226.029190,429.593842 225.195099,428.034851 
z"/>
<path fill="#565858" opacity="1.000000" stroke="none" 
	d="
M343.381256,442.933167 
	C343.744751,441.632263 344.451630,440.280273 345.472473,438.809998 
	C345.099152,440.088470 344.411896,441.485229 343.381256,442.933167 
z"/>
<path fill="#565858" opacity="1.000000" stroke="none" 
	d="
M350.657013,201.089478 
	C350.302856,202.401566 349.599274,203.750961 348.585999,205.222076 
	C348.953430,203.938141 349.630524,202.532471 350.657013,201.089478 
z"/>
<path fill="#565858" opacity="1.000000" stroke="none" 
	d="
M259.242798,487.948486 
	C260.204926,488.824158 261.091431,490.066040 261.949158,491.647217 
	C261.002686,490.762543 260.084961,489.538574 259.242798,487.948486 
z"/>
<path fill="#565858" opacity="1.000000" stroke="none" 
	d="
M263.225067,494.991272 
	C264.189453,495.852875 265.083282,497.077087 265.947754,498.639160 
	C264.997101,497.769287 264.075806,496.561584 263.225067,494.991272 
z"/>
<path fill="#565858" opacity="1.000000" stroke="none" 
	d="
M305.411560,500.933044 
	C305.768188,499.641754 306.463440,498.302521 307.475098,496.867493 
	C307.111084,498.142822 306.430664,499.513947 305.411560,500.933044 
z"/>
<path fill="#565858" opacity="1.000000" stroke="none" 
	d="
M267.219666,501.989258 
	C268.178253,502.857758 269.066895,504.088654 269.920166,505.657166 
	C268.973083,504.780426 268.061432,503.566040 267.219666,501.989258 
z"/>
<path fill="#565858" opacity="1.000000" stroke="none" 
	d="
M283.576294,307.067749 
	C283.208435,308.356354 282.503448,309.683350 281.479431,311.096069 
	C281.853333,309.823242 282.546234,308.464691 283.576294,307.067749 
z"/>
<path fill="#565858" opacity="1.000000" stroke="none" 
	d="
M321.580139,247.061646 
	C321.227966,248.366577 320.536072,249.716721 319.525787,251.163605 
	C319.885071,249.875854 320.562744,248.491364 321.580139,247.061646 
z"/>
<path fill="#565858" opacity="1.000000" stroke="none" 
	d="
M297.568115,285.056671 
	C297.195221,286.343689 296.486786,287.677948 295.456543,289.097809 
	C295.834015,287.823578 296.533325,286.463715 297.568115,285.056671 
z"/>
<path fill="#565858" opacity="1.000000" stroke="none" 
	d="
M326.625946,239.089996 
	C326.270660,240.391403 325.570099,241.735794 324.563538,243.208511 
	C324.931915,241.935547 325.606293,240.534256 326.625946,239.089996 
z"/>
<path fill="#565858" opacity="1.000000" stroke="none" 
	d="
M316.513489,483.940735 
	C316.505493,483.289093 316.821167,482.575958 317.427460,481.750427 
	C317.424408,482.385101 317.130768,483.132141 316.513489,483.940735 
z"/>
<path fill="#565858" opacity="1.000000" stroke="none" 
	d="
M280.448853,312.052429 
	C280.445404,312.690643 280.126892,313.390259 279.510986,314.183014 
	C279.520355,313.555389 279.827057,312.834625 280.448853,312.052429 
z"/>
<path fill="#565858" opacity="1.000000" stroke="none" 
	d="
M346.530365,437.970093 
	C346.529083,437.325745 346.846252,436.615051 347.455322,435.800598 
	C347.447754,436.432465 347.148285,437.168091 346.530365,437.970093 
z"/>
<path fill="#565858" opacity="1.000000" stroke="none" 
	d="
M339.424072,448.928467 
	C339.428528,448.258667 339.768890,447.531036 340.410431,446.694275 
	C340.394409,447.347015 340.077209,448.108826 339.424072,448.928467 
z"/>
<path fill="#565858" opacity="1.000000" stroke="none" 
	d="
M290.551514,296.062866 
	C290.551331,296.720947 290.218933,297.436523 289.592041,298.263641 
	C289.604828,297.623566 289.912079,296.871979 290.551514,296.062866 
z"/>
<path fill="#565858" opacity="1.000000" stroke="none" 
	d="
M333.469238,457.948975 
	C333.489349,457.304443 333.832672,456.601685 334.477722,455.807495 
	C334.450439,456.440948 334.121460,457.165863 333.469238,457.948975 
z"/>
<path fill="#565858" opacity="1.000000" stroke="none" 
	d="
M292.518188,293.055359 
	C292.499084,293.703857 292.157623,294.407501 291.511536,295.196533 
	C291.536560,294.558105 291.866180,293.834351 292.518188,293.055359 
z"/>
<path fill="#565858" opacity="1.000000" stroke="none" 
	d="
M352.609314,198.076172 
	C352.611511,198.750565 352.270905,199.478058 351.635010,200.323364 
	C351.648621,199.670532 351.957550,198.899918 352.609314,198.076172 
z"/>
<path fill="#565858" opacity="1.000000" stroke="none" 
	d="
M320.447021,477.940247 
	C320.445984,477.276459 320.779755,476.552551 321.403168,475.702240 
	C321.389130,476.343933 321.085480,477.112061 320.447021,477.940247 
z"/>
<path fill="#565858" opacity="1.000000" stroke="none" 
	d="
M318.441589,480.934540 
	C318.450958,480.269440 318.792145,479.551727 319.432739,478.728485 
	C319.412537,479.375946 319.092957,480.128937 318.441589,480.934540 
z"/>
<path fill="#565858" opacity="1.000000" stroke="none" 
	d="
M350.486847,431.945679 
	C350.488800,431.288300 350.817596,430.576385 351.442688,429.761108 
	C351.430542,430.402191 351.122101,431.146667 350.486847,431.945679 
z"/>
<path fill="#565858" opacity="1.000000" stroke="none" 
	d="
M294.460754,290.036682 
	C294.455963,290.678314 294.134705,291.387207 293.510956,292.188110 
	C293.520416,291.554749 293.832336,290.829346 294.460754,290.036682 
z"/>
<path fill="#565858" opacity="1.000000" stroke="none" 
	d="
M310.515717,492.954803 
	C310.529022,492.311676 310.859985,491.613281 311.487946,490.825653 
	C311.467773,491.457458 311.150574,492.178497 310.515717,492.954803 
z"/>
<path fill="#565858" opacity="1.000000" stroke="none" 
	d="
M308.570679,495.952911 
	C308.567932,495.312714 308.878906,494.608185 309.484741,493.804932 
	C309.481201,494.433655 309.182831,495.161133 308.570679,495.952911 
z"/>
<path fill="#565858" opacity="1.000000" stroke="none" 
	d="
M299.468872,282.045380 
	C299.480042,282.695831 299.168060,283.415131 298.568359,284.257935 
	C298.569031,283.625732 298.857361,282.869995 299.468872,282.045380 
z"/>
<path fill="#565858" opacity="1.000000" stroke="none" 
	d="
M302.563904,277.076447 
	C302.560913,277.743530 302.223450,278.463379 301.586792,279.291199 
	C301.601562,278.642517 301.915497,277.885864 302.563904,277.076447 
z"/>
<path fill="#565858" opacity="1.000000" stroke="none" 
	d="
M304.522766,274.067444 
	C304.521271,274.724152 304.193146,275.439423 303.564636,276.253113 
	C303.574890,275.609680 303.885498,274.867828 304.522766,274.067444 
z"/>
<path fill="#565858" opacity="1.000000" stroke="none" 
	d="
M303.356567,503.913879 
	C303.381378,503.243805 303.746643,502.528687 304.418823,501.720856 
	C304.382843,502.375061 304.039948,503.121948 303.356567,503.913879 
z"/>
<path fill="#565858" opacity="1.000000" stroke="none" 
	d="
M354.577179,195.056610 
	C354.568512,195.724686 354.224365,196.446320 353.576782,197.269638 
	C353.596100,196.617615 353.918915,195.863892 354.577179,195.056610 
z"/>
<path fill="#565858" opacity="1.000000" stroke="none" 
	d="
M356.546631,192.061432 
	C356.535309,192.719162 356.194275,193.431183 355.553711,194.244461 
	C355.575104,193.602402 355.896057,192.859055 356.546631,192.061432 
z"/>
<path fill="#565858" opacity="1.000000" stroke="none" 
	d="
M314.601685,258.074402 
	C314.606079,258.749573 314.269501,259.480316 313.633972,260.323425 
	C313.643616,259.667206 313.952179,258.898590 314.601685,258.074402 
z"/>
<path fill="#565858" opacity="1.000000" stroke="none" 
	d="
M226.521729,397.051086 
	C226.505219,397.700867 226.164368,398.409943 225.521210,399.215363 
	C225.545074,398.577942 225.871231,397.844147 226.521729,397.051086 
z"/>
<path fill="#565858" opacity="1.000000" stroke="none" 
	d="
M240.463150,375.041931 
	C240.459457,375.689423 240.137466,376.394379 239.512741,377.184296 
	C239.521622,376.545959 239.833237,375.822662 240.463150,375.041931 
z"/>
<path fill="#565858" opacity="1.000000" stroke="none" 
	d="
M252.523636,356.040283 
	C252.510773,356.693085 252.171387,357.407227 251.531494,358.221191 
	C251.553040,357.581238 251.875076,356.841400 252.523636,356.040283 
z"/>
<path fill="#565858" opacity="1.000000" stroke="none" 
	d="
M238.548111,378.067566 
	C238.547485,378.727905 238.215286,379.447021 237.583603,380.270874 
	C237.594940,379.625824 237.905731,378.876068 238.548111,378.067566 
z"/>
<path fill="#565858" opacity="1.000000" stroke="none" 
	d="
M236.586365,381.083130 
	C236.582703,381.749207 236.243256,382.465668 235.606476,383.289307 
	C235.622940,382.642120 235.936752,381.887817 236.586365,381.083130 
z"/>
<path fill="#565858" opacity="1.000000" stroke="none" 
	d="
M328.588379,236.067017 
	C328.582428,236.728348 328.241150,237.445587 327.602905,238.271423 
	C327.621613,237.627670 327.937347,236.875305 328.588379,236.067017 
z"/>
<path fill="#565858" opacity="1.000000" stroke="none" 
	d="
M233.549805,386.067352 
	C233.557114,386.731934 233.229660,387.452362 232.615234,388.297638 
	C232.623856,387.656067 232.919449,386.889648 233.549805,386.067352 
z"/>
<path fill="#565858" opacity="1.000000" stroke="none" 
	d="
M379.404602,387.919189 
	C379.408203,387.248474 379.750000,386.525909 380.390381,385.694275 
	C380.373596,386.345917 380.058228,387.106598 379.404602,387.919189 
z"/>
<path fill="#565858" opacity="1.000000" stroke="none" 
	d="
M377.343597,390.934326 
	C377.368286,390.261688 377.735809,389.536469 378.412109,388.712891 
	C378.376068,389.370239 378.031250,390.126007 377.343597,390.934326 
z"/>
<path fill="#565858" opacity="1.000000" stroke="none" 
	d="
M264.564117,337.061523 
	C264.555298,337.722382 264.212738,338.440643 263.574036,339.269287 
	C263.595398,338.626099 263.912872,337.872528 264.564117,337.061523 
z"/>
<path fill="#565858" opacity="1.000000" stroke="none" 
	d="
M375.403259,393.930237 
	C375.411713,393.259491 375.760284,392.530731 376.408997,391.685852 
	C376.387207,392.337219 376.065277,393.104706 375.403259,393.930237 
z"/>
<path fill="#565858" opacity="1.000000" stroke="none" 
	d="
M373.396912,396.926788 
	C373.417389,396.260620 373.773407,395.543640 374.436340,394.730286 
	C374.406372,395.381256 374.069427,396.128601 373.396912,396.926788 
z"/>
<path fill="#565858" opacity="1.000000" stroke="none" 
	d="
M348.521729,434.945099 
	C348.516724,434.292084 348.832397,433.581879 349.442993,432.773071 
	C349.439453,433.412292 349.140961,434.150085 348.521729,434.945099 
z"/>
<path fill="#565858" opacity="1.000000" stroke="none" 
	d="
M371.470825,399.930603 
	C371.472046,399.275116 371.800781,398.559418 372.428925,397.739563 
	C372.418335,398.380432 372.108368,399.125427 371.470825,399.930603 
z"/>
<path fill="#565858" opacity="1.000000" stroke="none" 
	d="
M369.461548,402.956421 
	C369.480713,402.299408 369.825104,401.582458 370.481171,400.784912 
	C370.457489,401.435059 370.122101,402.165771 369.461548,402.956421 
z"/>
<path fill="#565858" opacity="1.000000" stroke="none" 
	d="
M342.538818,214.062164 
	C342.533264,214.723801 342.196320,215.441467 341.559875,216.264191 
	C341.576050,215.618896 341.891754,214.868561 342.538818,214.062164 
z"/>
<path fill="#565858" opacity="1.000000" stroke="none" 
	d="
M221.450409,405.044922 
	C221.461792,405.696106 221.153580,406.416840 220.552490,407.249512 
	C220.550003,406.612488 220.840408,405.863495 221.450409,405.044922 
z"/>
<path fill="#565858" opacity="1.000000" stroke="none" 
	d="
M219.559784,408.056946 
	C219.551895,408.714142 219.212906,409.423035 218.580551,410.236633 
	C218.601028,409.597107 218.914841,408.852875 219.559784,408.056946 
z"/>
<path fill="#565858" opacity="1.000000" stroke="none" 
	d="
M323.567627,244.056030 
	C323.562225,244.722336 323.220490,245.443558 322.582153,246.280090 
	C322.600800,245.633911 322.916016,244.872421 323.567627,244.056030 
z"/>
<path fill="#565858" opacity="1.000000" stroke="none" 
	d="
M358.455750,419.921295 
	C358.446808,419.257202 358.772491,418.543549 359.385742,417.708679 
	C359.378998,418.348938 359.084656,419.110321 358.455750,419.921295 
z"/>
<path fill="#565858" opacity="1.000000" stroke="none" 
	d="
M276.562439,318.078308 
	C276.571198,318.748810 276.241455,319.474121 275.620667,320.325195 
	C275.627747,319.678345 275.925842,318.905731 276.562439,318.078308 
z"/>
<path fill="#565858" opacity="1.000000" stroke="none" 
	d="
M352.509827,428.946960 
	C352.514130,428.295166 352.842255,427.586884 353.461670,426.768921 
	C353.446533,427.403015 353.140076,428.146759 352.509827,428.946960 
z"/>
<path fill="#565858" opacity="1.000000" stroke="none" 
	d="
M278.530090,315.054993 
	C278.526947,315.711853 278.196350,316.428467 277.566650,317.246399 
	C277.579254,316.603424 277.890991,315.859100 278.530090,315.054993 
z"/>
<path fill="#565858" opacity="1.000000" stroke="none" 
	d="
M337.459106,222.063660 
	C337.483185,222.722565 337.179077,223.448456 336.595398,224.316895 
	C336.587524,223.683182 336.859253,222.906891 337.459106,222.063660 
z"/>
</svg>